<?xml version="1.0" encoding="utf-8"?>
<!-- Generator: Adobe Illustrator 22.1.0, SVG Export Plug-In . SVG Version: 6.00 Build 0)  -->
<svg version="1.1" id="图层_1" xmlns="http://www.w3.org/2000/svg" xmlns:xlink="http://www.w3.org/1999/xlink" x="0px" y="0px"
	 viewBox="0 0 300 300" style="enable-background:new 0 0 300 300;" xml:space="preserve">
<style type="text/css">
	.st0{fill:#FFFFFF;}
</style>
<g id="XMLID_166_">
	<path id="XMLID_247_" class="st0" d="M128.2,169.2v-29.5h6.5c2.1,0,3.9-1.7,3.9-3.9s-1.7-3.9-3.9-3.9h-6.5v-6.2h6.5
		c2.1,0,3.9-1.7,3.9-3.9c0-2.1-1.7-3.9-3.9-3.9h-6.5v-4.3c0-2.1-1.7-3.9-3.9-3.9c-2.1,0-3.9,1.7-3.9,3.9v39.6
		c-12.5-1.9-22.1-12.7-22.1-25.7c0-19.5,19-39.2,26-45.8c6.9,6.6,26,26.3,26,45.8c0,10.2-6,19.5-15.4,23.7c-2,0.9-2.8,3.2-2,5.1
		c0.9,2,3.2,2.8,5.1,2c12.1-5.4,20-17.5,20-30.8c0-27.3-29.9-52.9-31.2-54c-1.4-1.2-3.6-1.2-5,0c-1.3,1.1-31.2,26.6-31.2,54
		c0,17.3,13.1,31.5,29.8,33.5v8c-10.5,1.8-18.5,11-18.5,22.1c0,12.4,10.1,22.4,22.4,22.4c6.2,0,12.4-2.5,16.6-6.8
		c1.7-1.7,1.6-4.5-0.1-6.1s-4.5-1.6-6.1,0.1c-2.5,2.6-6.5,4.1-10.4,4.1c-7.6,0-13.8-6.2-13.8-13.8c0-7.6,6.2-13.8,13.8-13.8
		c6.1,0,11.2,4,13.1,9.4h-16.8c-2.4,0-4.3,1.9-4.3,4.3s1.9,4.3,4.3,4.3h21.8c2.4,0,4.3-1.9,4.3-4.3
		C146.7,180.3,138.7,171.1,128.2,169.2z"/>
	<path id="XMLID_245_" class="st0" d="M87.5,186.7l13.7-10c1.9-1.4,2.4-4.1,1-6c-1.4-1.9-4.1-2.4-6-1L75.1,185v-27.3
		c0-2.4-1.9-4.3-4.3-4.3c-2.4,0-4.3,1.9-4.3,4.3v35.6c0,0.2,0,0.3,0,0.5v15.6c0,2.4,1.9,4.3,4.3,4.3c2.4,0,4.3-1.9,4.3-4.3v-13.7
		l5.5-4l14.7,20.2c0.8,1.2,2.2,1.8,3.5,1.8c0.9,0,1.8-0.3,2.5-0.8c1.9-1.4,2.4-4.1,1-6L87.5,186.7z"/>
	<path id="XMLID_233_" class="st0" d="M183.1,169.3c-2.2-1-4.7,0-5.7,2.2l-11.1,24.9l-11.1-24.8c-1-2.2-3.5-3.2-5.7-2.2
		c-2.2,1-3.2,3.5-2.2,5.7l14.2,32l-7.2,16.1c-1,2.2,0,4.7,2.2,5.7c0.6,0.3,1.2,0.4,1.8,0.4c1.7,0,3.2-1,4-2.6l23-51.7
		C186.3,172.8,185.3,170.2,183.1,169.3z"/>
	<path id="XMLID_198_" class="st0" d="M56.3,179.2H43.5c-2.4,0-4.3,1.9-4.3,4.3s1.9,4.3,4.3,4.3H52v15.4c-8,3.5-17.5,1.8-23.8-4.5
		c-8.4-8.4-8.4-22,0-30.4c6.9-6.9,17.5-8.3,25.9-3.5c2.1,1.2,4.7,0.5,5.9-1.6c1.2-2.1,0.5-4.7-1.6-5.9c-11.8-6.8-26.7-4.8-36.4,4.8
		c-11.8,11.8-11.8,30.9,0,42.7c5.8,5.8,13.6,8.8,21.4,8.8c5.2,0,10.4-1.3,15.1-4c1.3-0.8,2.2-2.2,2.2-3.7v-22.4
		C60.7,181.2,58.7,179.2,56.3,179.2z"/>
	<g id="XMLID_167_">
		<path id="XMLID_195_" class="st0" d="M282.9,206.1h5c1.1,0,2-0.9,2-2c0-1.1-0.9-2-2-2h-5c-2.5,0-4.6-2.1-4.6-4.6v-5.8
			c0-0.8,0.6-1.4,1.4-1.4c0,0,0.1,0,0.1,0l0.3,0c5.5,0,9.9-4.4,9.9-9.9c0-1.1-0.9-2-2-2s-2,0.9-2,2c0,3.2-2.6,5.8-5.8,5.8h-0.4
			c-0.8,0-1.4-0.6-1.4-1.4v-13.9c0-1.1-0.9-2-2-2s-2,0.9-2,2v26.6C274.3,202.2,278.1,206.1,282.9,206.1z"/>
		<path id="XMLID_191_" class="st0" d="M260.8,189.9c2.8,0,5.4-1.1,7.3-3c0.8-0.8,0.8-2.1,0-2.9c-0.4-0.4-0.9-0.6-1.4-0.6
			c-0.5,0-1,0.2-1.4,0.6c-1.2,1.2-2.8,1.8-4.4,1.8c-3.5,0-6.3-2.8-6.3-6.3c0-3.5,2.8-6.3,6.3-6.3c2.7,0,5.1,1.7,5.9,4.2h-8.3
			c-1.1,0-2,0.9-2,2c0,1.1,0.9,2,2,2h10.7c1.1,0,2-0.9,2-2c0-5.7-4.6-10.3-10.3-10.3c-5.7,0-10.3,4.6-10.3,10.3
			S255.1,189.9,260.8,189.9z"/>
		<path id="XMLID_189_" class="st0" d="M289,209.5h-24.5c-5.3,0-9.6-4.3-9.6-9.6c0-1.1-0.9-2-2-2c-1.1,0-2,0.9-2,2c0,0,0,0.1,0,0.1
			l0,12.2c0,1.1,0.9,2,2,2c1.1,0,2-0.9,2-2v-2.6c2.6,2.5,6,4,9.6,4H289c1.1,0,2-0.9,2-2S290.1,209.5,289,209.5z"/>
		<path id="XMLID_188_" class="st0" d="M258.4,199c0,3.8,3.1,7,7,7h3.4c1.1,0,2-0.9,2-2s-0.9-2-2-2h-3.4c-1.6,0-2.9-1.3-2.9-2.9
			c0-1.6,1.3-2.9,2.9-2.9h5.5c1.1,0,2-0.9,2-2c0-1.1-0.9-2-2-2h-20.1c-1.1,0-2,0.9-2,2c0,1.1,0.9,2,2,2h4.7
			C257.1,196.1,258.4,197.4,258.4,199z"/>
		<path id="XMLID_187_" class="st0" d="M230.3,192.1h-19c-4.8,0-8.7,3.9-8.7,8.7v11.5c0,1.1,0.9,2,2,2s2-0.9,2-2v-11.5
			c0-2.5,2.1-4.6,4.6-4.6h4.6c1.6,0,2.9,1.3,2.9,2.9c0,1.6-1.3,2.9-2.9,2.9h-5.3c-1.1,0-2,0.9-2,2s0.9,2,2,2h20.6c1.1,0,2-0.9,2-2
			s-0.9-2-2-2h-5.3c-1.6,0-2.9-1.3-2.9-2.9c0-1.6,1.3-2.9,2.9-2.9h4.6c2.5,0,4.6,2.1,4.6,4.6v11.5c0,1.1,0.9,2,2,2c1.1,0,2-0.9,2-2
			v-11.5C239,195.9,235.1,192.1,230.3,192.1z"/>
		<path id="XMLID_175_" class="st0" d="M240.8,174.2c0-1-0.8-1.8-1.8-1.8h-14.8c-0.9,0-1.6-0.7-1.6-1.6c0-1-0.8-1.8-1.8-1.8
			c-1,0-1.8,0.8-1.8,1.8c0,0.9-0.7,1.6-1.6,1.6h-14.8c-1,0-1.8,0.8-1.8,1.8c0,1,0.8,1.8,1.8,1.8h14.8c0.9,0,1.6,0.7,1.6,1.6
			c0,0.9-0.7,1.6-1.6,1.6h-12.8c-1,0-1.8,0.8-1.8,1.8c0,1,0.8,1.8,1.8,1.8h12.8c0.9,0,1.6,0.7,1.6,1.6c0,0.9-0.7,1.6-1.6,1.6
			c0,0-0.1,0-0.1,0l-0.1,0l-14.7,0c-1,0-1.8,0.8-1.8,1.8s0.8,1.8,1.8,1.8H239c1,0,1.8-0.8,1.8-1.8s-0.8-1.8-1.8-1.8l-14.7,0
			c0,0-0.1,0-0.1,0c-0.9,0-1.6-0.7-1.6-1.6c0-0.9,0.7-1.6,1.6-1.6H237c1,0,1.8-0.8,1.8-1.8c0-1-0.8-1.8-1.8-1.8h-12.8
			c-0.9,0-1.6-0.7-1.6-1.6c0-0.9,0.7-1.6,1.6-1.6H239C240,176,240.8,175.2,240.8,174.2z"/>
	</g>
</g>
</svg>
