<?xml version="1.0" encoding="utf-8"?>
<!-- Generator: Adobe Illustrator 22.1.0, SVG Export Plug-In . SVG Version: 6.00 Build 0)  -->
<svg version="1.1" id="图层_1" xmlns="http://www.w3.org/2000/svg" xmlns:xlink="http://www.w3.org/1999/xlink" x="0px" y="0px"
	 viewBox="0 0 300 300" style="enable-background:new 0 0 300 300;" xml:space="preserve">
<style type="text/css">
	.st0{fill:#00AC69;}
</style>
<g id="XMLID_1620_">
	<path id="XMLID_1624_" class="st0" d="M99.9,171.3H85.2c-2.7,0-5,2.2-5,5c0,2.7,2.2,5,5,5H95V199c-9.2,4-20.1,2-27.3-5.2
		c-9.6-9.6-9.6-25.3,0-34.9c7.9-7.9,20.1-9.5,29.7-4c2.4,1.4,5.4,0.5,6.8-1.8c1.4-2.4,0.5-5.4-1.8-6.8c-13.5-7.8-30.7-5.5-41.7,5.6
		c-13.5,13.5-13.5,35.5,0,49c6.7,6.7,15.6,10.1,24.5,10.1c5.9,0,11.9-1.5,17.3-4.6c1.5-0.9,2.5-2.5,2.5-4.3v-25.7
		C104.9,173.5,102.7,171.3,99.9,171.3z"/>
	<path id="XMLID_1623_" class="st0" d="M135.7,179.8l15.7-11.4c2.2-1.6,2.7-4.7,1.1-6.9c-1.6-2.2-4.7-2.7-6.9-1.1L121.4,178v-31.3
		c0-2.7-2.2-5-5-5c-2.7,0-5,2.2-5,5v40.9c0,0.2,0,0.4,0,0.6V206c0,2.7,2.2,5,5,5c2.7,0,5-2.2,5-5v-15.7l6.3-4.5l16.8,23.2
		c1,1.3,2.5,2,4,2c1,0,2-0.3,2.9-0.9c2.2-1.6,2.7-4.7,1.1-6.9L135.7,179.8z"/>
	<path id="XMLID_1622_" class="st0" d="M245.4,159.8c-2.5-1.1-5.4,0-6.6,2.5l-12.7,28.6l-12.7-28.5c-1.1-2.5-4.1-3.6-6.6-2.5
		s-3.6,4.1-2.5,6.6l16.3,36.7l-8.2,18.5c-1.1,2.5,0,5.4,2.5,6.6c0.7,0.3,1.3,0.4,2,0.4c1.9,0,3.7-1.1,4.5-3l26.4-59.3
		C249,163.9,247.9,161,245.4,159.8z"/>
	<path id="XMLID_1621_" class="st0" d="M182.4,159.8V126h7.4c2.5,0,4.4-2,4.4-4.4c0-2.5-2-4.4-4.4-4.4h-7.4V110h7.4
		c2.5,0,4.4-2,4.4-4.4c0-2.5-2-4.4-4.4-4.4h-7.4v-4.9c0-2.5-2-4.4-4.4-4.4c-2.5,0-4.4,2-4.4,4.4v45.5c-14.3-2.2-25.3-14.5-25.3-29.5
		c0-22.4,21.8-45,29.8-52.6c8,7.5,29.8,30.1,29.8,52.6c0,11.7-6.9,22.4-17.6,27.2c-2.2,1-3.2,3.6-2.2,5.9c1,2.2,3.6,3.2,5.9,2.2
		c13.9-6.2,22.9-20.1,22.9-35.3c0-31.4-34.4-60.7-35.8-62c-1.7-1.4-4.1-1.4-5.7,0c-1.5,1.2-35.8,30.6-35.8,62
		c0,19.8,15,36.2,34.2,38.4v9.2c-12.1,2.1-21.3,12.7-21.3,25.3c0,14.2,11.5,25.7,25.7,25.7c7.2,0,14.3-2.9,19-7.8
		c1.9-2,1.9-5.1-0.1-7s-5.1-1.9-7,0.1c-2.9,2.9-7.4,4.8-11.9,4.8c-8.7,0-15.8-7.1-15.8-15.8s7.1-15.8,15.8-15.8
		c7,0,12.9,4.5,15,10.8h-19.3c-2.7,0-5,2.2-5,5c0,2.7,2.2,5,5,5h25c2.7,0,5-2.2,5-5C203.7,172.5,194.5,161.9,182.4,159.8z"/>
</g>
</svg>
