<?xml version="1.0" encoding="utf-8"?>
<!-- Generator: Adobe Illustrator 22.1.0, SVG Export Plug-In . SVG Version: 6.00 Build 0)  -->
<svg version="1.1" id="图层_1" xmlns="http://www.w3.org/2000/svg" xmlns:xlink="http://www.w3.org/1999/xlink" x="0px" y="0px"
	 viewBox="0 0 300 300" style="enable-background:new 0 0 300 300;" xml:space="preserve">
<style type="text/css">
	.st0{opacity:0.2;fill:#FFFFFF;}
</style>
<path id="XMLID_1_" class="st0" d="M94.4,159.4h62.9v13.9c0,4.5,3.6,8.3,8.3,8.3c4.7,0,8.3-3.6,8.3-8.3v-13.9h13.2v13.9
	c0,4.5,3.6,8.3,8.3,8.3c4.5,0,8.3-3.6,8.3-8.3v-13.9h9.2c4.5,0,8.3-3.6,8.3-8.3c0-4.5-3.6-8.3-8.3-8.3h-84.4
	c4-26.6,27.1-47.1,54.8-47.1c41.6,0,83.5,40.5,97.6,55.4c-14.1,14.7-56.1,55.4-97.6,55.4c-21.7,0-41.6-12.8-50.5-32.8
	c-1.9-4.3-6.8-6-10.9-4.3c-4.3,1.9-6,6.8-4.3,10.9c11.5,25.8,37.3,42.6,65.6,42.6c58.2,0,112.7-63.7,115.1-66.5
	c2.6-3,2.6-7.7,0-10.7c-2.3-2.8-56.7-66.5-115.1-66.5c-36.9,0-67.1,27.9-71.4,63.5H94.8c-3.8-22.4-23.4-39.4-47.1-39.4
	C21.3,103.3,0,124.8,0,151.1c0,13.2,5.3,26.4,14.5,35.4c3.6,3.6,9.6,3.4,13-0.2c3.4-3.6,3.4-9.6-0.2-13c-5.5-5.3-8.7-13.9-8.7-22.2
	c0-16.2,13.2-29.4,29.4-29.4s29.4,13.2,29.4,29.4c0,13-8.5,23.9-20,27.9v-35.8c0-5.1-4-9.2-9.2-9.2s-9.2,4-9.2,9.2v46.5
	c0,5.1,4,9.2,9.2,9.2C70.8,198.8,90.4,181.7,94.4,159.4z"/>
</svg>
